<!DOCTYPE svg PUBLIC "-//W3C//DTD SVG 1.1//EN" "http://www.w3.org/Graphics/SVG/1.1/DTD/svg11.dtd">
<!-- Uploaded to: SVG Repo, www.svgrepo.com, Transformed by: SVG Repo Mixer Tools -->
<svg width="800px" height="800px" viewBox="0 0 24 24" xmlns="http://www.w3.org/2000/svg" fill="#000000">
<g id="SVGRepo_bgCarrier" stroke-width="0"/>
<g id="SVGRepo_tracerCarrier" stroke-linecap="round" stroke-linejoin="round"/>
<g id="SVGRepo_iconCarrier"> <defs> <style>.cls-1{fill:#ffe2d6;}.cls-2,.cls-6{fill:#9293a5;}.cls-2{fill-rule:evenodd;}.cls-3{fill:#ff8904;}.cls-4{fill:#ff8904;}.cls-5{fill:#3276c3;}.cls-7{fill:#ff8904;}.cls-8{fill:#ffeabb;}</style> </defs> <g id="Data"> <path class="cls-1" d="M20.89,18.88V5.56A.61.61,0,0,0,20.27,5L4,5.15a.61.61,0,0,0-.61.61V18.88Z"/> <path class="cls-2" d="M9.86,13.66h4.31a.5.5,0,0,1,.5.5.5.5,0,0,1-.5.5H9.57a.5.5,0,0,1-.43-.25L7.21,11.06a.5.5,0,1,1,.86-.5Z"/> <path class="cls-2" d="M13.8,11.31h3.72a.5.5,0,0,0,.5-.5.51.51,0,0,0-.5-.5H13.8a.5.5,0,0,0-.5.5A.5.5,0,0,0,13.8,11.31Z"/> <path class="cls-2" d="M13.8,9.76h2.31a.5.5,0,0,0,.5-.5.51.51,0,0,0-.5-.5H13.8a.5.5,0,0,0-.5.5A.5.5,0,0,0,13.8,9.76Z"/> <path class="cls-2" d="M13.8,8.21h3.72a.5.5,0,0,0,0-1H13.8a.5.5,0,1,0,0,1Z"/> <path class="cls-3" d="M6.41,3.46h0a4.29,4.29,0,1,0,4.31,4.28c0-.13-.77,0-.79-.19-.18-2-1-3-3-3.31-.19,0-.3-.78-.5-.78m0,2.63h0A1.65,1.65,0,1,1,4.76,7.74,1.65,1.65,0,0,1,6.41,6.09"/> <path class="cls-4" d="M19,4.94h1.27a.61.61,0,0,1,.62.62V18.88H19Z"/> <path class="cls-5" d="M14.53,13h3a1.14,1.14,0,1,1,0,2.27h-3a1.14,1.14,0,1,1,0-2.27"/> <path class="cls-6" d="M2.79,17.1a.63.63,0,0,0-.47.2.63.63,0,0,0-.2.47v1.42a1.35,1.35,0,0,0,1.36,1.35H20.77a1.34,1.34,0,0,0,1.35-1.35V17.77a.67.67,0,0,0-.19-.47.65.65,0,0,0-.47-.2H16.24a.67.67,0,0,0-.67.67v.64H8.67v-.64A.66.66,0,0,0,8,17.1Z"/> <path class="cls-7" d="M20,17.1v2.09a1.34,1.34,0,0,1-1.35,1.35h2.12a1.34,1.34,0,0,0,1.35-1.35V17.77a.66.66,0,0,0-.66-.67Z"/> <path class="cls-8" d="M6.41,3.46h0a4.28,4.28,0,0,1,4.24,4.28H8.06A1.65,1.65,0,0,0,6.41,6.09h0Z"/> </g> </g>
</svg>