<!DOCTYPE svg PUBLIC "-//W3C//DTD SVG 1.1//EN" "http://www.w3.org/Graphics/SVG/1.1/DTD/svg11.dtd">
<!-- Uploaded to: SVG Repo, www.svgrepo.com, Transformed by: SVG Repo Mixer Tools -->
<svg width="800px" height="800px" viewBox="-15.93 0 299.632 299.632" xmlns="http://www.w3.org/2000/svg" fill="#000000" stroke="#000000">
<g id="SVGRepo_bgCarrier" stroke-width="0"/>
<g id="SVGRepo_tracerCarrier" stroke-linecap="round" stroke-linejoin="round"/>
<g id="SVGRepo_iconCarrier">
<defs>
<style>.a{fill:#ffffff;}.b{fill:#7a7473;}.c{fill:#211715;}.d{fill:#fdb03c;}.e{fill:#fdb03c;}.f{fill:#afddec;}</style>
</defs>
<path class="a" d="M211.9,99.609c-1.445-2.363-2.729-6.192-4.34-10.948a17.5,17.5,0,0,1-.391-2.385c-.689-3.474,1.05-7.092,2.8-10.363l.463-.973c4.7-9.883,5.865-19.014,4.882-26.868-2.024-16.977-11.707-25.15-18.89-28.033a40.93,40.93,0,0,0-31.086-.088c-8.887,3.484-20.16,11.805-19.65,27.569a37.957,37.957,0,0,0,1.226,8.219c.893,5.047,2.147,12.049-1.926,15.486a4.756,4.756,0,0,0-1.683,2.58c-.58,2.727,1.8,3.4,3.435,4.562a7.819,7.819,0,0,1,2.419,2.894c.708,2.684,2.753,8.618,5.158,11.522a9.788,9.788,0,0,0,6.284,3.769c4.086.6,9.386.019,12.563-1.59a1.7,1.7,0,0,1,2.172.575c.172.255.924,1.236,1.78,2.588l5.739,10.07Z"/>
<path class="b" d="M198.136,17.835c-4.7-4.112-13.573-6.592-22.646-5.371-10.125,1.363-32.755,8.016-31.316,35.012q3.063-1.822,6.119-3.645l6.8,1.184a28.491,28.491,0,0,1,15.644,5.179c4.22,2.748,6.583,9.541,9.844,8.961a7.98,7.98,0,0,1,2.89-3.975,4.544,4.544,0,0,1,4-.586c1.982.74,2.958,2.992,3.264,5.086a15,15,0,0,1-1.676,9.176l1.063,1.092c3.965,4.064,9.282,9.1,15.308,11.8.816-3.008,2.656-5.967,3.994-8.565,1.052-2.121,2.976-5.825,3.866-8.121,2.63-6.778,3.852-14.778,2.63-21.111-1.011-4.863-2-8.577-5.222-13.278a28.962,28.962,0,0,0-7.944-8.364Z"/>
<path class="a" d="M46.708,190.892c-4.763,0-8.311,0-9.849,0-10.205-24.277-16.783-40.861-24.788-59.465a2.009,2.009,0,0,0-2.069-1.2c-1.965.228-4.087.518-5.972.829a1.99,1.99,0,0,0-1.505,2.752c8.207,19.176,16.786,41.259,27.117,65.82,11.424,0,82.565-.068,82.582-.068,0-.463-.035-7.84-.035-8.729C110.468,190.83,67.272,190.878,46.708,190.892Z"/>
<path class="a" d="M107.586,287.091c27.451-.471,43.118-.471,72.9-.694,9.071-.067,18.543.668,26.888-2.889s14.928-13.979,13.494-22.937c0,0-2.12-20.081-3.41-32.308-11.305-.545-46.468-.069-62.533.218-.119,1.737-.217,3.1-.217,3.1-23.7,5.482-46.019,10.875-74.371,16.889-7.333,1.556-12.117,8.812-14.074,13.7a198.1,198.1,0,0,0-8.889,29.259h50.112Z"/>
<path class="a" d="M206.157,88.92c-8.007,2.941-16.135,5.931-25.083,9.551a10.317,10.317,0,0,0-2.778,1.435,3.421,3.421,0,0,0-.827,3.041c.346,2.487,1.235,4.117,1.679,7.006l.114.662c5.111-2.963,19.941-11,27.108-14.884a20.074,20.074,0,0,1,4.037-1.926,44.538,44.538,0,0,0-2.222-5.63Z"/>
<path class="c" d="M190.431,71.645c4.4,4.505,9.183,8.9,14.862,11.738a2.4,2.4,0,0,0,2.423-4.145,35.485,35.485,0,0,1-4.047-2.374q-.977-.66-1.916-1.373c-.044-.033-.454-.351-.2-.153l-.387-.306q-.48-.384-.952-.778a86.256,86.256,0,0,1-6.388-6,2.4,2.4,0,1,0-3.394,3.394Z"/>
<path class="c" d="M157.1,47.415a26.623,26.623,0,0,1,14.564,4.941c3.539,2.485,4.917,7.467,9.16,9.028a2.422,2.422,0,0,0,2.952-1.677,2.451,2.451,0,0,0-1.676-2.952c.467.172-.112-.075-.194-.132-.325-.229.022.04-.173-.131a10.686,10.686,0,0,1-1.029-1.056c-.692-.8-1.311-1.651-1.955-2.486a21.144,21.144,0,0,0-5.54-5.3A31.739,31.739,0,0,0,157.1,42.615c-3.09-.084-3.088,4.716,0,4.8Z"/>
<path class="c" d="M184.954,59.625a5.817,5.817,0,0,1,1.731-2.373,3.493,3.493,0,0,1,1.033-.476c.032,0,.645-.017.547-.03.1.013.745.274.475.136a2.819,2.819,0,0,1,1.192,1.478,7.9,7.9,0,0,1,.547,2.885,12.856,12.856,0,0,1-5.059,10.614,2.469,2.469,0,0,0-.861,3.284,2.417,2.417,0,0,0,3.283.861,17.672,17.672,0,0,0,7.233-16.82c-.451-3.1-2.262-6.331-5.534-7.066-3.807-.855-7.179,1.8-8.732,5.085a2.467,2.467,0,0,0,.861,3.283,2.42,2.42,0,0,0,3.284-.861Z"/>
<path class="c" d="M150.948,86.941a13.483,13.483,0,0,0,5.214-1.384,9.34,9.34,0,0,0,1.614-1.106,6.271,6.271,0,0,0,1-1.118,2.407,2.407,0,0,0,.241-1.85,2.4,2.4,0,0,0-2.952-1.676l-.573.242a2.4,2.4,0,0,0-.861.861l-.018.023.376-.486a4.089,4.089,0,0,1-.725.7l.486-.375a7.272,7.272,0,0,1-1.6.912l.573-.242a11.156,11.156,0,0,1-2.762.716l.638-.086c-.216.027-.432.05-.649.066a2.567,2.567,0,0,0-1.7.7,2.4,2.4,0,0,0,0,3.394,2.362,2.362,0,0,0,1.7.7Z"/>
<path class="c" d="M153.161,63.243c-.214,1.544.57,4.9,3.271,4.792,3.51-.553,3.09-4.695,1.621-6.45C156.851,60.148,153.906,59.92,153.161,63.243Z"/>
<path class="c" d="M143.289,47.52c.214,5.536,2.25,10.838,2.13,16.393a7.4,7.4,0,0,1-2.127,5.615c-2.1,1.968-3.376,5.11-1.695,7.771,1.276,2.02,3.927,2.46,5.12,4.512a13.415,13.415,0,0,1,.82,2.388q.594,1.8,1.321,3.547c2.089,5.027,5.263,10.172,11.106,11.12a27.5,27.5,0,0,0,9.828-.277c.309-.063,4.4-1.141,4.3-1.422.081.226-.735-.16-.652-.178q-.211-.285-.007,0l.207.287q.729,1.014,1.4,2.064c1.664,2.591,5.821.187,4.145-2.423-1.424-2.217-3.085-5.166-6.219-4.41-1.136.275-2.2.9-3.35,1.2a20.638,20.638,0,0,1-3.786.611c-2.327.161-5.077.273-7.179-.912-2.18-1.229-3.446-3.32-4.514-5.515a41.24,41.24,0,0,1-2.408-6.345,10.044,10.044,0,0,0-4.724-5.85,11.4,11.4,0,0,1-1.184-.754c.048.037-.208-.292-.185-.2-.2-.793.887-1.61,1.519-2.254A11.459,11.459,0,0,0,150.1,65.61c.724-6.134-1.778-12.02-2.012-18.09-.119-3.079-4.919-3.094-4.8,0Z"/>
<path class="c" d="M209.358,71.974c-1.223,2.351-2.545,4.638-3.54,7.1a14.957,14.957,0,0,0-.95,7.931,37.144,37.144,0,0,0,2.266,7.748,35.7,35.7,0,0,0,2.692,6.066c1.583,2.649,5.735.238,4.144-2.423a28.014,28.014,0,0,1-2.139-4.733c-.79-2.142-1.9-4.5-2.171-6.767a11.85,11.85,0,0,1,.707-6.349c.856-2.135,2.077-4.116,3.136-6.152,1.423-2.737-2.717-5.167-4.145-2.422Z"/>
<path class="c" d="M145.763,49.325,151.5,45.9a2.486,2.486,0,0,0,1.1-1.434,2.4,2.4,0,0,0-3.525-2.711l-5.741,3.422a2.493,2.493,0,0,0-1.1,1.434,2.4,2.4,0,0,0,3.525,2.711Z"/>
<path class="c" d="M213.5,74.4a97.671,97.671,0,0,0,4.336-9.3,48.379,48.379,0,0,0,2.787-12.253,36.042,36.042,0,0,0-5.449-22.785,33.531,33.531,0,0,0-9.2-9.824c-2.58-1.715-4.986,2.44-2.423,4.145A26.706,26.706,0,0,1,210.5,31.7a29.337,29.337,0,0,1,4.345,9.523,32.616,32.616,0,0,1,1.082,10.355A42.754,42.754,0,0,1,213.714,62.4a76.264,76.264,0,0,1-4.356,9.574c-1.37,2.757,2.768,5.192,4.145,2.422Z"/>
<path class="c" d="M199.833,16.138c-8.969-7.684-22.406-7.58-33.139-4.144-8.694,2.783-16.763,8.145-21.118,16.374a37.176,37.176,0,0,0-3.749,19.963,2.457,2.457,0,0,0,2.4,2.4,2.421,2.421,0,0,0,2.4-2.4c-.361-5.375.167-11.185,2.317-15.952a26.025,26.025,0,0,1,7.85-10.011c.283-.226.421-.33.936-.7q.621-.443,1.261-.855,1.257-.81,2.578-1.514,1.283-.684,2.613-1.271c.12-.053.744-.316.33-.145q.3-.123.6-.243.69-.274,1.39-.524a46.207,46.207,0,0,1,9.194-2.281c6.686-.927,15.306.035,20.743,4.693a2.462,2.462,0,0,0,3.394,0,2.421,2.421,0,0,0,0-3.394Z"/>
<path class="c" d="M181.462,109.315a40.764,40.764,0,0,0-1.125-4.5c-.211-.743-.918-2.46-.383-3.176a3.775,3.775,0,0,1,1.3-.667c.757-.328,1.532-.619,2.3-.925q2.686-1.076,5.385-2.121c6.6-2.561,13.245-5,19.889-7.437l-2.71-1.1a40.427,40.427,0,0,1,1.98,5.057c.89,2.949,5.525,1.692,4.629-1.276a49.786,49.786,0,0,0-2.464-6.2,2.4,2.4,0,0,0-2.711-1.1c-7.54,2.771-15.084,5.536-22.559,8.48-1.84.724-3.682,1.444-5.506,2.208-1.785.747-3.421,1.676-4.114,3.6-1.206,3.348.921,7.145,1.466,10.444a2.418,2.418,0,0,0,2.952,1.676,2.455,2.455,0,0,0,1.676-2.952Z"/>
<path class="d" d="M225.4,228.062c-.63-11.4-.14-24.408-.112-37.152.018-8.325.349-37.879.054-46.2-.444-12.519-1.177-21.194-4.185-32.421a38.531,38.531,0,0,0-1.233-4.058c-.994-2.5-2.883-6.446-4.494-9.5-1.07-2.029-2.2-4.963-3.537-5.074-1.861-.156-4.185,1.351-5.519,2.074-8.7,4.714-28.708,15.559-28.888,16-.852,3.407-1.593,6-3.152,13.267a273.736,273.736,0,0,0-7.119,31.327c-3.21,19.953-6.076,43.874-7.711,69.734Z"/>
<path class="a" d="M73.147,170.714c.1-.161.2-.313.3-.451,2.4-3.268,3.923-5.943,6.9-8.7a15.011,15.011,0,0,1,10.489-4.133,22.189,22.189,0,0,1,9.222,2.734c4.053,2.285,9.689,5.565,15.892,8.77l4.042.956c-.231,4.678-.426,10.13-.408,15.043-4.422.842-9.525,1.821-9.525,1.821-5,.91-7.935.417-12.493-2.368-2.4-1.467-4.695-2.91-7.306-1.1-1.62,1.122-1.99,2.016-3.553,3.676-.917.974-1.828,1.241-3.552.575-.781-.3-1.083-1.763-.877-2.967a31.143,31.143,0,0,1,.8-3.5l-2,.867a4.278,4.278,0,0,1-4.72.211c-1.385-1.167-.966-3.876.656-6l-1.584.145a3.092,3.092,0,0,1-3.071-1.971A5.082,5.082,0,0,1,73.147,170.714Z"/>
<path class="c" d="M81.361,178.5c-1,3.049-3.169,8.763.362,10.988a5.5,5.5,0,0,0,5.5.143c1.55-.924,2.428-2.627,3.722-3.831,1.276-1.188,2.334-1.081,3.805-.285,1.729.936,3.332,2.012,5.152,2.778,3.532,1.486,7.08,1.435,10.8.781a2.421,2.421,0,0,0,1.677-2.953,2.456,2.456,0,0,0-2.953-1.676,13.407,13.407,0,0,1-7.729-.565c-3.067-1.294-5.787-4.085-9.341-3.808a8,8,0,0,0-4.8,2.333,15.307,15.307,0,0,0-1.32,1.468,7.22,7.22,0,0,1-1.439,1.618c.025-.013.391-.025,0,.011a.246.246,0,0,1-.2-.021q-.675-.285-.16.1c.542-.218.01.579.191-.077.076-.274.04-.651.09-.95a32.861,32.861,0,0,1,1.279-4.774c.968-2.941-3.666-4.2-4.629-1.276Z"/>
<path class="c" d="M117.16,166.865c-4.158-2.154-8.248-4.432-12.319-6.744-3.743-2.126-7.4-4.189-11.729-4.836a16.8,16.8,0,0,0-12.45,2.963c-3.645,2.619-6.073,6.312-8.643,9.911-1.389,1.945-2.676,4.33-1.975,6.806a5.458,5.458,0,0,0,5.385,3.733,2.456,2.456,0,0,0,2.4-2.4,2.421,2.421,0,0,0-2.4-2.4c-.19.012-.571.066-.742-.244-.108-.2.106-.867.228-1.158a24.089,24.089,0,0,1,2.8-4.117c1.933-2.743,4.086-5.42,7.074-7.057a12.306,12.306,0,0,1,9.341-.944c3.271.844,6.064,2.625,8.973,4.275,3.846,2.18,7.712,4.323,11.637,6.356,2.739,1.419,5.17-2.722,2.423-4.144Z"/>
<path class="c" d="M82.309,165.864a64.736,64.736,0,0,0-5.3,6.183c-1.432,1.891-3.138,3.918-3.671,6.284-.593,2.635.211,5.411,2.9,6.444a6.537,6.537,0,0,0,6.537-1.141,2.4,2.4,0,0,0-3.394-3.394c-.328.321.426-.275.038-.033-.406.253.481-.111-.02.012-.171.041-.34.089-.512.129-.551.13.485.008-.093,0-.184,0-.373,0-.558,0-.487.014.412.138-.079,0a3.245,3.245,0,0,0-.413-.113c-.212-.03.453.239,0-.027q-.22-.145.186.134-.213-.236-.021-.008c.119.158.121.148.008-.031.111.3.137.359.078.188-.017-.137-.076-.284-.107-.421.134.594.029.073.033-.1,0-.234.1-.55,0-.156.051-.208.09-.413.152-.619.01-.033.254-.687.071-.263a6.867,6.867,0,0,1,.314-.624,25.72,25.72,0,0,1,1.6-2.344q.394-.552.8-1.1c.148-.2.3-.4.446-.591-.222.29.191-.244.233-.3a59.621,59.621,0,0,1,4.168-4.718,2.4,2.4,0,1,0-3.394-3.395Z"/>
<path class="c" d="M82.859,183.4q.8-1.316,1.712-2.558c.06-.082.12-.163.181-.244.026-.035.334-.437.088-.118s.039-.049.091-.115c.079-.1.157-.2.237-.293q.475-.585.976-1.147a37.268,37.268,0,0,1,4.373-4.137,2.406,2.406,0,0,0,.7-1.7,2.447,2.447,0,0,0-.7-1.7,2.417,2.417,0,0,0-1.7-.7,2.766,2.766,0,0,0-1.7.7,37.375,37.375,0,0,0-8.409,9.583,2.4,2.4,0,0,0,4.145,2.423Z"/>
<path class="c" d="M154.066,229.268c-16.936,3.918-33.848,7.937-50.809,11.743q-6.885,1.545-13.78,3.045-3.675.8-7.352,1.584a27.269,27.269,0,0,0-6.193,1.847c-6.556,3.118-10.328,9.683-12.821,16.178A213.249,213.249,0,0,0,55.056,290.8c-.715,3,3.912,4.285,4.629,1.276a223.776,223.776,0,0,1,6.869-23.94c2.128-5.922,4.594-12.247,10.416-15.755a15.528,15.528,0,0,1,4.977-1.8q3.585-.762,7.168-1.538,6.723-1.455,13.435-2.957,12.714-2.84,25.4-5.805,13.7-3.184,27.393-6.381c3.008-.7,1.735-5.325-1.276-4.629Z"/>
<path class="c" d="M218.55,261.209c.994,6.687-3.1,13.776-8.22,17.783-6.677,5.223-16.2,5.062-24.234,5.021-18.452-.093-36.914.151-55.365.3q-15.184.125-30.367.375c-3.086.052-3.095,4.853,0,4.8,18.691-.32,37.384-.436,56.078-.542,9.959-.056,19.92-.181,29.879-.135,8.867.041,18.972-.105,26.4-5.65,7.112-5.311,11.793-14.268,10.46-23.231a2.417,2.417,0,0,0-2.953-1.676,2.462,2.462,0,0,0-1.676,2.952Z"/>
<path class="e" d="M98.3,200.517c3.259,0,4.963,4.092,4.963,6.978,0,3.521-2.167,6.4-4.885,6.433-15.994.214-76.059.515-78.559.515-3.056,0-5-3.463-5-6.85,0-3.8,2.443-6.98,5.555-6.98C37.454,200.613,95.947,200.517,98.3,200.517Z"/>
<path class="c" d="M98.3,202.917a1.766,1.766,0,0,1,1.3.718,5.968,5.968,0,0,1,1.106,2.486c.345,1.48.187,3.736-1.2,4.907-.8.673-1.723.508-2.865.522l-3.484.037q-9.4.093-18.8.15-21.389.149-42.777.252-5.578.029-11.158.053a2.712,2.712,0,0,1-1.328-.189c-1.6-.827-2.04-3.4-1.843-5.011S18.4,203.28,20.1,203.02a24.814,24.814,0,0,1,3.126-.007Q43.9,203,64.568,202.966q16.434-.024,32.87-.048h.86c3.089,0,3.094-4.8,0-4.8q-15.488,0-30.975.045-22,.031-44.009.051a24.962,24.962,0,0,0-4.193.128,7.978,7.978,0,0,0-5.627,4.543c-2.16,4.579-.986,12.141,4.594,13.715a15.5,15.5,0,0,0,4.2.235q3.188-.014,6.373-.03,22.008-.109,44.016-.255,10.141-.069,20.284-.16c2.707-.027,6.193.452,8.6-.951,4.607-2.687,5.055-9.325,2.588-13.594a7.011,7.011,0,0,0-5.852-3.727C95.209,198,95.214,202.8,98.3,202.917Z"/>
<path class="c" d="M46.708,188.492q-4.925,0-9.849,0l2.314,1.762c-7.522-17.9-14.779-35.909-22.359-53.784-.876-2.065-1.633-4.265-2.671-6.254a4.444,4.444,0,0,0-2.706-2.23,10.235,10.235,0,0,0-4.068.168c-2.432.325-5.455.283-6.835,2.695-1.367,2.389.211,4.843,1.153,7.065,3.856,9.1,7.567,18.262,11.286,27.419,4.736,11.663,9.476,23.325,14.355,34.929a2.511,2.511,0,0,0,2.314,1.762q16.49,0,32.979-.023,20.324-.016,40.647-.036l8.956-.009a2.435,2.435,0,0,0,2.4-2.4c-.009-2.91-.033-5.819-.035-8.729a2.435,2.435,0,0,0-2.4-2.4q-8.581,0-17.164.017l-32.046.032-16.271.013c-3.089,0-3.094,4.8,0,4.8q15.309-.011,30.617-.027l28.33-.029q3.267,0,6.534-.006l-2.4-2.4c0,2.91.026,5.819.035,8.729l2.4-2.4-24.83.023q-21.46.02-42.921.037-7.416.006-14.831.008l2.315,1.762c-7.8-18.556-15.2-37.278-22.924-55.866q-1.24-2.982-2.495-5.958-.66-1.563-1.324-3.126c-.037-.085-.449-1.168-.477-1.17.073.007-.049.375-.058.405-.076.241-.738.089-.011.095a26.938,26.938,0,0,0,3.487-.516c.6-.079,1.256-.088,1.847-.227s-.033.1.021-.068l-.178-.2a3.173,3.173,0,0,1,.229.464c.871,1.884,1.638,3.824,2.449,5.734,3.208,7.56,6.341,15.151,9.471,22.743q6.24,15.135,12.55,30.239a2.511,2.511,0,0,0,2.315,1.762q4.925,0,9.849,0C49.8,193.29,49.8,188.49,46.708,188.492Z"/>
<path class="e" d="M150.386,227.752c1.713-.04,4.828-.1,8.837-.17l2.058-.034c4.877,5.389,50.722,56.733,44.453,51.97a90.1,90.1,0,0,0-7.566,8.2l-.276.007c-.779-.807-1.264-1.312-1.264-1.312-6.787-7.063-41.707-47.49-47.664-55.265Z"/>
<path class="c" d="M146.892,232.356c5.393,7.025,11.289,13.69,17.046,20.416q11.4,13.313,22.978,26.465c2.638,2.983,5.258,5.994,8.015,8.869,2.142,2.233,5.533-1.164,3.394-3.395-6.023-6.278-11.648-12.969-17.355-19.53q-11.416-13.123-22.648-26.408-2.307-2.74-4.589-5.5-.865-1.051-1.721-2.112-.358-.444-.711-.89l-.276-.35c-.378-.478.114.15.011.016a2.479,2.479,0,0,0-3.283-.861,2.416,2.416,0,0,0-.861,3.284Z"/>
<path class="c" d="M160.057,229.939c5.095,5.875,10.291,11.664,15.44,17.491,6.829,7.727,13.657,15.455,20.377,23.276,2.49,2.9,5,5.792,7.353,8.807a2.413,2.413,0,0,0,3.394,0,2.461,2.461,0,0,0,0-3.394c-4.978-6.387-10.448-12.418-15.779-18.508q-10.1-11.535-20.283-22.994c-2.375-2.685-4.759-5.364-7.108-8.072-2.027-2.338-5.41,1.069-3.394,3.394Z"/>
<path class="c" d="M227.8,228.062c-.673-12.465-.148-24.966-.111-37.44.02-6.967.094-13.933.133-20.9.1-17.515.728-35.426-3.027-52.639-.607-2.784-1.262-5.593-2.137-8.3a57.021,57.021,0,0,0-3.128-7.239c-1.153-2.383-2.3-4.822-3.61-7.122a7.179,7.179,0,0,0-2.229-2.605,5.111,5.111,0,0,0-4.161-.238,31.464,31.464,0,0,0-5.785,2.853q-2.4,1.3-4.806,2.606-5.58,3.03-11.148,6.081c-3.02,1.657-6.042,3.312-9.033,5.023-.737.421-1.5.827-2.2,1.3-1.264.857-1.476,2.015-1.836,3.422-1.116,4.368-1.961,8.816-3.167,13.156-1.735,6.243-3.319,12.529-4.649,18.871-2.384,11.36-3.927,22.913-5.381,34.424q-2.328,18.431-3.738,36.961-.374,4.89-.683,9.784c-.2,3.084,4.605,3.073,4.8,0,1.48-23.284,3.944-46.541,7.7-69.572,1-6.115,2.255-12.185,3.711-18.208,1.42-5.872,3.065-11.677,4.42-17.564q.631-2.74,1.329-5.465.254-.994.508-1.988a2.788,2.788,0,0,0,.168-.667s-.587.861-.52.789c-.556.6-.5.342-.212.182,2.033-1.131,4.028-2.341,6.063-3.472,6.786-3.771,13.612-7.468,20.437-11.167a46.034,46.034,0,0,1,4.764-2.54,7.443,7.443,0,0,1,1.285-.341c0,.1-.684-.8-.4-.138-.017-.038.218.268.173.21a18.873,18.873,0,0,1,1.7,3.192c1.206,2.406,2.451,4.786,3.568,7.237a42.128,42.128,0,0,1,2.355,6.812c4.466,16.94,4.16,34.519,4.086,51.9-.032,7.437-.1,14.874-.141,22.311-.064,10.669-.347,21.346-.185,32.014.043,2.828.13,5.654.282,8.478.166,3.073,4.967,3.092,4.8,0Z"/>
<path class="d" d="M168.64,149.53a94.206,94.206,0,0,1-4.774,12.062c-15.29,1.342-29.731,2.53-44.178,3.7a1.3,1.3,0,0,0-1.2,1.3c.183,6.179.134,15.864,1.041,23.143a1.261,1.261,0,0,0,1.251,1.093c19.194.132,34.048-.535,52.156-3.433a27.5,27.5,0,0,0,14.475-6.513,24.593,24.593,0,0,0,4.766-7.466c6.307-13.407,8.238-18.679,11.387-33.012.9-5.562,1.689-11.149.181-16.552a14.941,14.941,0,0,0-11.07-8.829c-6.35-1.038-11.358,2.022-14.7,6.867a32.62,32.62,0,0,0-4.665,10.919C171.569,139.136,170.306,144.34,168.64,149.53Z"/>
<path class="c" d="M166.326,148.892a94.941,94.941,0,0,1-4.532,11.489l2.072-1.189q-15.432,1.354-30.873,2.617-3.856.318-7.711.632-1.749.143-3.5.285c-1.282.1-2.788.022-3.925.711-2.128,1.289-1.754,3.741-1.711,5.856.042,2.064.074,4.127.123,6.191.106,4.444.253,8.9.743,13.321a5.213,5.213,0,0,0,1.032,3.2,4.339,4.339,0,0,0,3.465,1.24q3.806.023,7.611,0c9.425-.073,18.848-.451,28.229-1.394q7.325-.736,14.6-1.871a40.919,40.919,0,0,0,5.862-1.136,34,34,0,0,0,5.925-2.468,21.564,21.564,0,0,0,9.182-9.061c2.068-3.858,3.819-7.939,5.531-11.966a127.632,127.632,0,0,0,6.879-21.866,51.12,51.12,0,0,0,1.552-15.414A16.477,16.477,0,0,0,205,121.011a17.052,17.052,0,0,0-3.974-4.651,16.673,16.673,0,0,0-22.571,1.194c-6.518,6.611-7.9,16.456-10.263,25.033-.584,2.112-1.2,4.216-1.862,6.305-.942,2.949,3.691,4.212,4.628,1.276,1.328-4.161,2.429-8.386,3.555-12.6,1.153-4.318,2.127-8.686,4.368-12.6,1.7-2.968,4.1-5.77,7.38-7.009a11.769,11.769,0,0,1,10.19,1.01,12.58,12.58,0,0,1,3.814,3.536,11.069,11.069,0,0,1,1.842,5.8,48.25,48.25,0,0,1-1.5,14.326,120.649,120.649,0,0,1-6.439,20.626c-1.671,3.915-3.381,7.882-5.391,11.637a17.622,17.622,0,0,1-8.325,7.781c-3.63,1.784-7.422,2.332-11.376,2.92q-6.7.995-13.449,1.624c-9.043.846-18.122,1.175-27.2,1.232q-1.767.01-3.534.01l-1.921,0a8.058,8.058,0,0,0-1.95-.01c-.8.22.758,1.441.836.745a3.725,3.725,0,0,0-.084-.76q-.072-.681-.133-1.363c-.1-1.078-.175-2.158-.242-3.238-.259-4.225-.336-8.459-.415-12.69q-.027-1.445-.057-2.889a7.657,7.657,0,0,0-.029-1.165c-.087-.464.244-.851-.379.051-.567.821-.129.51.567.453q3.615-.294,7.23-.59,7.282-.6,14.564-1.2,7.434-.623,14.865-1.264,1.832-.158,3.662-.318c1.287-.112,3.177.061,4.156-.918a11.105,11.105,0,0,0,1.675-3.326q.765-1.746,1.472-3.517c.821-2.066,1.561-4.163,2.244-6.278C171.906,147.221,167.273,145.959,166.326,148.892Z"/>
<path class="f" d="M90.16,73.524A12.47,12.47,0,0,1,77.676,86.033c-14.1-.017-25.74-.041-36.552-.05A12.458,12.458,0,0,1,28.681,73.565c-.058-15.847-.148-43.115-.2-59.019A12.459,12.459,0,0,1,40.96,2.037c10.778.017,22.419.041,36.543.058A12.454,12.454,0,0,1,89.954,14.513C89.963,16.994,90.127,63.767,90.16,73.524Z"/>
<path class="a" d="M89.353,36.349c-7.623.024-15.068.155-22.955-.007a12.072,12.072,0,0,1-4.88-.791c-2.766-1.309-4.021-5.237-2.774-8.033a5.414,5.414,0,0,1,4.819-3.4c.414-.018.822-.051,1.211-.029a1.351,1.351,0,0,0,1.414-1.28,6.131,6.131,0,0,1,.905-2.911c.876-1.47,2.837-3.441,6.936-3.137a6.194,6.194,0,0,1,5.824,4.177,1.372,1.372,0,0,0,2.009.738,5.8,5.8,0,0,1,5.3-.324,4.769,4.769,0,0,1,2.146,1.882Z"/>
<path class="a" d="M240.905,38.223c-.773.108-1.54.238-2.3.39a5.069,5.069,0,0,0-2.8,1.229c-1.2,1.239-1.5,3.291-1.5,5.141,0,15.063-.074,45.408-.074,58.3-1.593,23.659-7.162,73.482-10.884,107.864l-.079.728c-10.536,0-72.032,1.048-72.815,1.63s-2.164,11.783-2.222,15.111c9.431-.219,61.289-1.088,71.166-.225l-.067.771q-1.726,19.928-4.682,39.724a6.836,6.836,0,0,1-.614,2.265,7.134,7.134,0,0,1-2.132,2.123,92.052,92.052,0,0,0-15.889,15.305h0a2.859,2.859,0,0,0,2.859,2.859h46.246c1.473-9.7,2.348-19.614,3.335-29.488,3.556-37.926,15.259-129.185,16.889-159.407,0-17.222-.889-32.608-.889-56.593C262.885,39.308,251.329,36.766,240.905,38.223Z"/>
<path class="c" d="M108.524,291.9c17.715,0,35.431-.184,53.145-.387q13.533-.154,27.066-.386,2.662-.05,5.326-.108a11.309,11.309,0,0,0,2.6-.131c.9-.247,1.376-1.011,1.94-1.682q.89-1.058,1.81-2.089a92.3,92.3,0,0,1,6.813-6.864c2.339-2.12,4.9-3.941,7.287-5.992,2.9-2.487,2.778-6.826,3.27-10.326q.829-5.906,1.557-11.825,1.453-11.838,2.469-23.724a2.443,2.443,0,0,0-2.4-2.4c-3.323-.285-6.679-.286-10.011-.326-5.242-.063-10.485-.057-15.727-.035q-17,.072-34,.373c-3.811.062-7.622.125-11.433.213l2.4,2.4a75.459,75.459,0,0,1,1.137-10.515c.128-.779.264-1.559.438-2.331.058-.258.13-.512.191-.769a2.368,2.368,0,0,0,.1-.337c.032-.414-.275.451-.085.2a7.369,7.369,0,0,1-1.256.934c.045-.013.093-.014.138-.025-1.049.251-.369.052-.034.023,4.1-.349,8.24-.359,12.347-.471,14.462-.4,28.928-.649,43.394-.865,5.42-.081,10.843-.179,16.264-.181a2.466,2.466,0,0,0,2.4-2.4c1.821-16.834,3.676-33.665,5.459-50.5,1.68-15.858,3.342-31.722,4.693-47.612q.381-4.491.708-8.986c.194-2.738.1-5.5.107-8.241q.012-11.263.034-22.528.02-11.437.033-22.874l0-4.688c0-1.417-.316-3.726.751-4.855a3.978,3.978,0,0,1,2.157-.731c.988-.188,1.98-.334,2.981-.432a41.112,41.112,0,0,1,6.138-.141,23.175,23.175,0,0,1,9.969,2.434,11.15,11.15,0,0,1,1.487.969,6.909,6.909,0,0,1,1.258,1.33c.927,1.412.608,3.233.617,5.208.04,9.174.231,18.346.458,27.517.195,7.836.4,15.673.419,23.512.012,4.575-.52,9.189-.913,13.744-1.077,12.462-2.413,24.9-3.775,37.335q-2.436,22.237-5.03,44.459c-1.62,14.091-3.249,28.18-4.8,42.279-1.55,14.12-2.734,28.283-4.383,42.391-.593,5.068-1.3,10.122-2.2,15.145a2.468,2.468,0,0,0,1.677,2.952,2.42,2.42,0,0,0,2.952-1.676c2.988-16.617,4.054-33.529,5.836-50.3,1.455-13.69,3.028-27.367,4.6-41.044q2.617-22.8,5.2-45.612c1.492-13.378,2.957-26.761,4.206-40.164.464-4.981.9-9.966,1.236-14.957.452-6.769.121-13.6-.035-20.379-.2-8.752-.45-17.5-.566-26.256q-.053-3.859-.074-7.718c-.013-2.247.414-4.96-.4-7.081-1.282-3.334-4.213-5.437-7.411-6.767a31.9,31.9,0,0,0-11.46-2.16,41.932,41.932,0,0,0-6.345.337c-2.121.272-4.57.458-6.365,1.726-3.553,2.51-2.979,7.533-2.981,11.35q0,5.334-.012,10.668-.016,12.084-.039,24.168-.009,5.514-.016,11.028c0,2.927.117,5.885-.023,8.809-.309,6.45-1.01,12.905-1.606,19.333q-1.137,12.266-2.418,24.518c-1.811,17.591-3.733,35.171-5.646,52.751q-.64,5.872-1.276,11.746l2.4-2.4c-12.363,0-24.732.3-37.092.539q-10.947.21-21.891.489c-4.331.116-8.7.121-13.022.489a4.665,4.665,0,0,0-2.013.436c-1.433.837-1.665,2.907-1.935,4.379a82.336,82.336,0,0,0-1.484,12.809,2.427,2.427,0,0,0,2.4,2.4c8.472-.2,16.946-.308,25.419-.412,11.36-.139,22.724-.258,34.084-.156,3.881.035,7.793.012,11.663.343l-2.4-2.4q-1.173,13.543-2.883,27.032c-.578,4.518-1.012,9.136-1.908,13.6-.343,1.712-1.986,2.52-3.279,3.533q-2.45,1.915-4.765,4a93.378,93.378,0,0,0-9.846,10.327l1.7-.7c-10.976.266-21.956.4-32.935.523q-19.167.224-38.335.343-8.114.048-16.227.06c-3.088,0-3.094,4.8,0,4.8Z"/>
<path class="a" d="M54.118,68.266a6.005,6.005,0,0,0,3.888-10.7,5.452,5.452,0,0,0-3.769-1.085,1.675,1.675,0,0,1-1.759-1.35,5.948,5.948,0,0,0-3.341-4.311,6.737,6.737,0,0,0-6.178.387,1.661,1.661,0,0,1-2.4-.743A7.243,7.243,0,0,0,33.594,46.1a9.622,9.622,0,0,0-3.395.511,8.234,8.234,0,0,0-1.609.834c.025,7.429.051,14.708.072,20.908C36.6,68.376,47.124,68.266,54.118,68.266Z"/>
<path class="c" d="M88.16,73.524a10.581,10.581,0,0,1-6.684,9.81c-2.472.945-5.122.7-7.717.694l-9.274-.013Q56.1,84,47.724,83.99c-4.584-.006-9.644.732-13.382-2.51a10.543,10.543,0,0,1-3.264-5.093,22.916,22.916,0,0,1-.409-6.158q-.025-7.038-.049-14.076-.054-15.585-.1-31.168L30.5,18.211a25.462,25.462,0,0,1,.283-6.19,10.575,10.575,0,0,1,8.8-7.91,59.624,59.624,0,0,1,7.575-.064l8.093.014q9.048.017,18.1.029c2.605,0,5.285-.255,7.779.642a10.421,10.421,0,0,1,4.807,3.612A11.8,11.8,0,0,1,87.958,15.6q.025,7.363.052,14.726.07,20.29.142,40.582,0,1.308.008,2.617c.009,2.573,4.009,2.578,4,0q-.067-20.307-.141-40.613-.03-8.4-.059-16.792a18.106,18.106,0,0,0-1.436-7.826A14.529,14.529,0,0,0,78.88.17,95.056,95.056,0,0,0,69.314.084L59.689.069l-17.2-.03a17.693,17.693,0,0,0-7.629,1.35,14.456,14.456,0,0,0-5.632,4.65c-3.006,4.092-2.742,8.816-2.727,13.63q.052,16.128.107,32.258.026,7.852.054,15.706c.016,4.672-.392,9.448,2.232,13.576a14.778,14.778,0,0,0,12.614,6.775c5.767.024,11.534.013,17.3.022,6.395.01,12.828.227,19.219.022a14.653,14.653,0,0,0,12.28-7.372,14.84,14.84,0,0,0,1.854-7.132C92.187,70.949,88.187,70.947,88.16,73.524Z"/>
</g>
</svg>